<svg width="64" height="64" xmlns="http://www.w3.org/2000/svg">

 <g>
  <title>background</title>
  <rect fill="none" id="canvas_background" height="66" width="66" y="-1" x="-1"/>
 </g>
 <g>
  <title>Layer 1</title>
  <circle id="svg_2" r="32" fill="#ca293e" cy="32" cx="32"/>
  <path opacity="0.2" id="svg_4" fill="#231F20" d="m28.583918,56.77703c0,0 -16.062,-2.377 -16.062,-16.062s21.003,-14.991 16.355,-31.969c0,0 15.726,4.921 11.887,20.245c0,0 2.079,-1.328 3.671,-3.913c0,0 7.963,6.151 7.963,15.511s-11.039,16.246 -16.268,16.182c0,0 5.642,-7.618 0.509,-12.529c-7.286,-6.972 -4.18,-11.449 -4.18,-11.449s-17.754,8.685 -3.875,23.984z"/>
  <path id="svg_6" fill="#ff7f4a" d="m28.583918,54.77703c0,0 -16.062,-2.377 -16.062,-16.062s21.002,-14.991 16.354,-31.969c0,0 15.726,4.921 11.887,20.245c0,0 2.079,-1.328 3.671,-3.913c0,0 7.963,6.151 7.963,15.511s-11.038,16.246 -16.267,16.182c0,0 5.642,-7.618 0.509,-12.529c-7.286,-6.972 -4.18,-11.449 -4.18,-11.449s-17.754,8.685 -3.875,23.984z"/>
 </g>
</svg>